<?xml version="1.0" standalone="no"?>
<!DOCTYPE svg PUBLIC "-//W3C//DTD SVG 20010904//EN"
 "http://www.w3.org/TR/2001/REC-SVG-20010904/DTD/svg10.dtd">
<svg version="1.0" xmlns="http://www.w3.org/2000/svg"
 width="406.000000pt" height="560.000000pt" viewBox="0 0 406.000000 560.000000"
 preserveAspectRatio="xMidYMid meet">
<metadata>
Created by potrace 1.16, written by Peter Selinger 2001-2019
</metadata>
<g transform="translate(0.000000,560.000000) scale(0.100000,-0.100000)"
fill="#000000" stroke="none">
<path d="M1665 5590 c-818 -70 -1406 -302 -1561 -615 -34 -69 -36 -78 -33
-152 3 -60 10 -91 32 -135 113 -231 495 -431 1027 -538 929 -188 2071 -59
2606 293 93 62 203 178 240 253 23 48 28 73 28 134 0 64 -4 85 -32 143 -135
288 -669 515 -1412 603 -157 18 -738 27 -895 14z"/>
<path d="M70 3702 l0 -368 28 -45 c120 -188 505 -358 1062 -469 455 -90 1091
-102 1580 -29 449 67 862 201 1080 349 69 47 156 139 175 185 12 28 15 102 15
390 0 195 -3 355 -7 355 -5 0 -42 -21 -83 -46 -296 -179 -799 -327 -1330 -390
-182 -21 -726 -30 -930 -15 -590 45 -1175 203 -1514 409 -37 23 -70 42 -72 42
-2 0 -4 -166 -4 -368z"/>
<path d="M70 2369 c0 -398 -2 -386 82 -470 175 -175 565 -329 1033 -409 328
-55 456 -65 855 -65 392 1 526 11 830 61 568 94 1028 302 1121 507 17 39 19
69 19 383 l0 340 -142 -71 c-279 -139 -735 -263 -1178 -319 -341 -44 -912 -47
-1250 -7 -510 61 -1020 202 -1300 360 l-70 40 0 -350z"/>
<path d="M72 1067 l3 -322 29 -59 c32 -65 132 -173 209 -225 632 -430 2075
-528 3019 -205 302 103 521 243 617 393 54 84 61 134 61 454 0 159 -3 287 -7
285 -5 -2 -73 -36 -153 -75 -215 -106 -531 -203 -870 -267 -584 -111 -1305
-111 -1890 0 -335 63 -673 168 -884 274 l-137 68 3 -321z"/>
</g>
</svg>
