<?xml version="1.0" standalone="no"?>
<!DOCTYPE svg PUBLIC "-//W3C//DTD SVG 20010904//EN"
 "http://www.w3.org/TR/2001/REC-SVG-20010904/DTD/svg10.dtd">
<svg version="1.0" xmlns="http://www.w3.org/2000/svg"
 width="665.000000pt" height="677.000000pt" viewBox="0 0 665.000000 677.000000"
 preserveAspectRatio="xMidYMid meet">
<metadata>
Created by potrace 1.16, written by Peter Selinger 2001-2019
</metadata>
<g transform="translate(0.000000,677.000000) scale(0.100000,-0.100000)"
fill="#000000" stroke="none">
<path d="M1943 6653 c-13 -2 -23 -11 -23 -19 0 -11 -20 -14 -104 -14 -121 0
-166 -7 -166 -26 0 -10 -16 -14 -60 -14 -53 0 -60 -2 -60 -20 0 -18 -7 -20
-60 -20 -53 0 -60 -2 -60 -20 0 -18 -7 -20 -60 -20 -53 0 -60 -2 -60 -20 0
-16 -7 -20 -36 -20 -27 0 -37 -5 -41 -20 -4 -16 -14 -20 -44 -20 -32 0 -39 -3
-39 -20 0 -16 -7 -20 -35 -20 -28 0 -35 -4 -35 -20 0 -13 -7 -20 -20 -20 -13
0 -20 -7 -20 -20 0 -17 -7 -20 -40 -20 -33 0 -40 -3 -40 -20 0 -13 -7 -20 -20
-20 -13 0 -20 -7 -20 -20 0 -13 -7 -20 -20 -20 -13 0 -20 -7 -20 -20 0 -13 -7
-20 -20 -20 -11 0 -20 -6 -20 -14 0 -9 -15 -17 -40 -21 -30 -5 -40 -11 -40
-26 0 -12 -7 -19 -20 -19 -13 0 -20 -7 -20 -20 0 -13 -7 -20 -20 -20 -13 0
-20 -7 -20 -20 0 -13 -7 -20 -20 -20 -13 0 -20 -7 -20 -20 0 -13 -7 -20 -20
-20 -16 0 -20 -7 -20 -35 0 -28 -4 -35 -20 -35 -13 0 -20 -7 -20 -20 0 -13 -7
-20 -20 -20 -13 0 -20 -7 -20 -19 0 -10 -9 -21 -20 -24 -11 -3 -20 -12 -20
-20 0 -8 -9 -17 -20 -20 -15 -4 -20 -14 -20 -40 0 -26 -5 -36 -20 -40 -11 -3
-20 -12 -20 -21 0 -9 -7 -16 -15 -16 -11 0 -15 -11 -15 -36 0 -27 -5 -37 -20
-41 -15 -4 -20 -14 -20 -40 0 -26 -5 -36 -20 -40 -16 -4 -20 -14 -20 -44 0
-32 -3 -39 -20 -39 -18 0 -20 -7 -20 -56 0 -47 -3 -57 -20 -61 -17 -5 -20 -14
-20 -59 0 -47 -2 -54 -20 -54 -18 0 -20 -7 -20 -61 0 -52 -3 -62 -20 -66 -19
-5 -20 -14 -20 -139 0 -127 -1 -134 -20 -134 -20 0 -20 -7 -20 -1615 l0 -1615
435 0 435 0 0 1560 c0 1317 2 1560 14 1560 17 0 26 44 26 126 0 48 4 64 14 64
14 0 26 42 26 91 0 19 5 29 15 29 12 0 15 13 15 56 0 47 3 57 20 61 13 3 22
17 26 39 3 19 12 34 20 34 8 0 14 9 14 21 0 12 8 23 19 26 11 3 21 13 24 24 3
10 12 19 21 19 12 0 16 10 16 35 0 28 4 35 20 35 13 0 20 7 20 20 0 13 7 20
20 20 13 0 20 7 20 20 0 13 7 20 20 20 13 0 20 7 20 20 0 13 7 20 20 20 13 0
20 7 20 20 0 17 7 20 40 20 33 0 40 3 40 20 0 13 7 20 20 20 13 0 20 7 20 20
0 13 7 20 20 20 13 0 20 7 20 20 0 17 7 20 40 20 33 0 40 3 40 20 0 18 7 20
60 20 53 0 60 2 60 20 0 18 7 20 55 20 48 0 55 2 55 20 0 19 7 20 99 20 90 0
99 2 104 20 5 20 14 20 871 20 l866 0 0 415 c0 408 0 415 -20 415 -13 0 -20 7
-20 20 0 20 -6 20 -887 19 -489 -1 -898 -4 -910 -6z"/>
<path d="M4297 6653 c-4 -3 -7 -199 -7 -435 l0 -428 435 0 435 0 0 435 0 435
-428 0 c-236 0 -432 -3 -435 -7z"/>
<path d="M5717 6653 c-4 -3 -7 -199 -7 -435 l0 -428 435 0 435 0 0 435 0 435
-428 0 c-236 0 -432 -3 -435 -7z"/>
<path d="M5710 4800 l0 -430 435 0 435 0 0 430 0 430 -435 0 -435 0 0 -430z"/>
<path d="M5710 3400 l0 -450 435 0 435 0 0 429 c0 420 0 429 -20 434 -11 3
-20 12 -20 21 0 14 -42 16 -415 16 l-415 0 0 -450z"/>
<path d="M5710 2000 l0 -430 435 0 435 0 0 430 0 430 -435 0 -435 0 0 -430z"/>
<path d="M70 575 l0 -435 433 2 432 3 3 433 2 432 -435 0 -435 0 0 -435z"/>
<path d="M1490 575 l0 -435 433 2 432 3 3 433 2 432 -435 0 -435 0 0 -435z"/>
<path d="M2870 600 c0 -403 0 -410 20 -410 15 0 20 -7 20 -25 l0 -25 415 0
c408 0 415 0 415 20 0 13 7 20 20 20 20 0 20 7 20 415 l0 415 -455 0 -455 0 0
-410z"/>
<path d="M4292 578 l3 -433 433 -3 432 -2 0 435 0 435 -435 0 -435 0 2 -432z"/>
<path d="M5712 578 l3 -433 433 -3 432 -2 0 435 0 435 -435 0 -435 0 2 -432z"/>
</g>
</svg>
